<?xml version="1.0" encoding="utf-8"?><svg xmlns="http://www.w3.org/2000/svg" xmlns:xlink="http://www.w3.org/1999/xlink" width="1459" height="702" preserveAspectRatio="xMidYMid" viewBox="0 0 1459 702" style="z-index:1;margin-right:-2px;display:block;background-repeat-y:initial;background-repeat-x:initial;background-color:rgb(255, 255, 255);animation-play-state:paused" ><g transform="translate(729.5,351) scale(1,1) translate(-729.5,-351)" style="transform:matrix(1, 0, 0, 1, 0, 0);animation-play-state:paused" ><path id="path0" d="M 865.5439808488138 104.81586553693108
c 0 29.900914524608297 -7.316181213467987 8.588560554940681 -15.904741768408668 8.588560554940681
S 833.7344973119964 134.7167800615394 833.7344973119964 104.81586553693108
s 7.316181213467987 -8.588560554940681 15.904741768408668 -8.588560554940681
S 865.5439808488138 74.91495101232279 865.5439808488138 104.81586553693108
z" fill="none" stroke="none" style="animation-play-state:paused" ></path>


<circle cx="0" cy="0" r="6.374584080646683" fill="#9df871" transform="translate(838.3466796875 89.24516296386719)" style="animation-play-state:paused" ></circle>
<path id="path1" d="M 178.9122856243075 508.5022946553341
c 0 30.12242739828501 -7.3703811719207994 8.652186593124418 -16.022567765045217 8.652186593124418
S 146.86715009421707 538.624722053619 146.86715009421707 508.5022946553341
s 7.3703811719207994 -8.652186593124418 16.022567765045217 -8.652186593124418
S 178.9122856243075 478.37986725704906 178.9122856243075 508.5022946553341
z" fill="none" stroke="none" style="animation-play-state:paused" ></path>


<circle cx="0" cy="0" r="5.356864730792544" fill="#51cacc" transform="translate(147.4540252685547 497.3974304199219)" style="animation-play-state:paused" ></circle>
<path id="path2" d="M 1044.8638345728214 654.6347653038983
c 0 21.392421946300516 -5.23431600813736 6.14463183563951 -11.37894784377687 6.14463183563951
S 1022.1059388852677 676.0271872501988 1022.1059388852677 654.6347653038983
s 5.23431600813736 -6.14463183563951 11.37894784377687 -6.14463183563951
S 1044.8638345728214 633.2423433575979 1044.8638345728214 654.6347653038983
z" fill="none" stroke="none" style="animation-play-state:paused" ></path>


<circle cx="0" cy="0" r="4.854148692918487" fill="#51cacc" transform="translate(1022.1223754882812 656.5955810546875)" style="animation-play-state:paused" ></circle>
<path id="path3" d="M 1051.045910457061 458.5512700436354
c 0 24.71435859169697 -6.047130293713088 7.098805127402321 -13.145935421115409 7.098805127402321
S 1024.7540396148302 483.26562863533235 1024.7540396148302 458.5512700436354
s 6.047130293713088 -7.098805127402321 13.145935421115409 -7.098805127402321
S 1051.045910457061 433.8369114519384 1051.045910457061 458.5512700436354
z" fill="none" stroke="none" style="animation-play-state:paused" ></path>


<circle cx="0" cy="0" r="4.603890461339845" fill="#e0ff77" transform="translate(1040.7381591796875 466.4842529296875)" style="animation-play-state:paused" ></circle>
<path id="path4" d="M 955.3604319577416 509.7924944994742
c 0 33.375379176536434 -8.166316181492958 9.586545082622168 -17.752861264115126 9.586545082622168
S 919.8547094295113 543.1678736760106 919.8547094295113 509.7924944994742
s 8.166316181492958 -9.586545082622168 17.752861264115126 -9.586545082622168
S 955.3604319577416 476.4171153229377 955.3604319577416 509.7924944994742
z" fill="none" stroke="none" style="animation-play-state:paused" ></path>


<circle cx="0" cy="0" r="5.43218875694257" fill="#51cacc" transform="translate(919.9829711914062 503.3673095703125)" style="animation-play-state:paused" ></circle>
<path id="path5" d="M 1035.4363083860146 551.5383898605112
c 0 36.774317767090224 -8.997971368543352 10.56283595437698 -19.560807322920333 10.56283595437698
S 996.314693740174 588.3127076276014 996.314693740174 551.5383898605112
s 8.997971368543352 -10.56283595437698 19.560807322920333 -10.56283595437698
S 1035.4363083860146 514.764072093421 1035.4363083860146 551.5383898605112
z" fill="none" stroke="none" style="animation-play-state:paused" ></path>


<circle cx="0" cy="0" r="5.610289354740399" fill="#e0ff77" transform="translate(1034.7069091796875 565.1793212890625)" style="animation-play-state:paused" ></circle>
<path id="path6" d="M 988.4884553669199 348.0188113291491
c 0 24.466557232942435 -5.986498046358255 7.0276281413770825 -13.014126187735338 7.0276281413770825
S 962.4602029914493 372.48536856209154 962.4602029914493 348.0188113291491
s 5.986498046358255 -7.0276281413770825 13.014126187735338 -7.0276281413770825
S 988.4884553669199 323.5522540962067 988.4884553669199 348.0188113291491
z" fill="none" stroke="none" style="animation-play-state:paused" ></path>


<circle cx="0" cy="0" r="4.821437523556214" fill="#de9dd6" transform="translate(969.0709838867188 337.45770263671875)" style="animation-play-state:paused" ></circle>
<path id="path7" d="M 1166.4234013375503 117.9583606172523
c 0 19.35849812824264 -4.736653797335965 5.560419675133525 -10.297073472469489 5.560419675133525
S 1145.8292543926113 137.31685874549493 1145.8292543926113 117.9583606172523
s 4.736653797335965 -5.560419675133525 10.297073472469489 -5.560419675133525
S 1166.4234013375503 98.59986248900965 1166.4234013375503 117.9583606172523
z" fill="none" stroke="none" style="animation-play-state:paused" ></path>


<circle cx="0" cy="0" r="4.458570001599649" fill="#9df871" transform="translate(1160.6951904296875 125.88457489013672)" style="animation-play-state:paused" ></circle>
<path id="path8" d="M 1270.2565657089751 588.6620274706411
c 0 33.223171436529725 -8.129073862129612 9.542825838152154 -17.671899700281767 9.542825838152154
S 1234.9127663084116 621.8851989071708 1234.9127663084116 588.6620274706411
s 8.129073862129612 -9.542825838152154 17.671899700281767 -9.542825838152154
S 1270.2565657089751 555.4388560341114 1270.2565657089751 588.6620274706411
z" fill="none" stroke="none" style="animation-play-state:paused" ></path>


<circle cx="0" cy="0" r="7.8811591226933535" fill="#de9dd6" transform="translate(1234.9930419921875 583.466796875)" style="animation-play-state:paused" ></circle>
<path id="path9" d="M 646.3310744178464 464.04511766984007
c 0 25.322921681881787 -6.196034028545543 7.27360516394477 -13.469639192490312 7.27360516394477
S 619.3917960328658 489.36803935172185 619.3917960328658 464.04511766984007
s 6.196034028545543 -7.27360516394477 13.469639192490312 -7.27360516394477
S 646.3310744178464 438.7221959879583 646.3310744178464 464.04511766984007
z" fill="none" stroke="none" style="animation-play-state:paused" ></path>


<circle cx="0" cy="0" r="6.562484624207482" fill="#51cacc" transform="translate(646.3223266601562 465.61376953125)" style="animation-play-state:paused" ></circle>
<path id="path10" d="M 1062.900260932685 48.31643884824995
c 0 20.58132146104759 -5.035855251107389 5.911656164343457 -10.947511415450846 5.911656164343457
S 1041.005238101783 68.89776030929754 1041.005238101783 48.31643884824995
s 5.035855251107389 -5.911656164343457 10.947511415450846 -5.911656164343457
S 1062.900260932685 27.73511738720236 1062.900260932685 48.31643884824995
z" fill="none" stroke="none" style="animation-play-state:paused" ></path>


<circle cx="0" cy="0" r="6.267355378020683" fill="#ff708e" transform="translate(1059.20263671875 37.91563415527344)" style="animation-play-state:paused" ></circle>
<path id="path11" d="M 974.5601821235576 313.9976872438141
c 0 28.304154515164807 -6.925484615412665 8.129916722440955 -15.05540133785362 8.129916722440955
S 944.4493794478504 342.30184175897887 944.4493794478504 313.9976872438141
s 6.925484615412665 -8.129916722440955 15.05540133785362 -8.129916722440955
S 974.5601821235576 285.6935327286493 974.5601821235576 313.9976872438141
z" fill="none" stroke="none" style="animation-play-state:paused" ></path>


<circle cx="0" cy="0" r="6.535629906465873" fill="#e0ff77" transform="translate(974.5595092773438 313.63934326171875)" style="animation-play-state:paused" ></circle>
<path id="path12" d="M 254.90802939532145 101.96050189922495
c 0 23.23604145110705 -5.685414397611299 6.674182118935004 -12.359596516546302 6.674182118935004
S 230.18883636222884 125.196543350332 230.18883636222884 101.96050189922495
s 5.685414397611299 -6.674182118935004 12.359596516546302 -6.674182118935004
S 254.90802939532145 78.7244604481179 254.90802939532145 101.96050189922495
z" fill="none" stroke="none" style="animation-play-state:paused" ></path>


<circle cx="0" cy="0" r="6.974440224156794" fill="#9df871" transform="translate(254.79429626464844 106.93492126464844)" style="animation-play-state:paused" ></circle>
<path id="path13" d="M 72.78518962585488 199.21804706079598
c 0 22.428715337858687 -5.487877157135635 6.44229057576792 -11.930167732903556 6.44229057576792
S 48.92485416004777 221.64676239865466 48.92485416004777 199.21804706079598
s 5.487877157135635 -6.44229057576792 11.930167732903556 -6.44229057576792
S 72.78518962585488 176.7893317229373 72.78518962585488 199.21804706079598
z" fill="none" stroke="none" style="animation-play-state:paused" ></path>


<circle cx="0" cy="0" r="5.407723582027819" fill="#e0ff77" transform="translate(59.65190505981445 205.8365478515625)" style="animation-play-state:paused" ></circle>
<path id="path14" d="M 488.14634792960874 44.35770425537987
c 0 24.004264075626498 -5.873383763185206 6.8948418089565475 -12.768225572141754 6.8948418089565475
S 462.6098967853252 68.36196833100637 462.6098967853252 44.35770425537987
s 5.873383763185206 -6.8948418089565475 12.768225572141754 -6.8948418089565475
S 488.14634792960874 20.353440179753374 488.14634792960874 44.35770425537987
z" fill="none" stroke="none" style="animation-play-state:paused" ></path>


<circle cx="0" cy="0" r="6.045820619447025" fill="#de9dd6" transform="translate(463.0561828613281 53.064491271972656)" style="animation-play-state:paused" ></circle>
<path id="path15" d="M 601.8249121632039 399.4306034748024
c 0 24.375863752867982 -5.964307088467697 7.001577886462081 -12.965884974929779 7.001577886462081
S 575.8931422133444 423.8064672276704 575.8931422133444 399.4306034748024
s 5.964307088467697 -7.001577886462081 12.965884974929779 -7.001577886462081
S 601.8249121632039 375.0547397219344 601.8249121632039 399.4306034748024
z" fill="none" stroke="none" style="animation-play-state:paused" ></path>


<circle cx="0" cy="0" r="6.031695372001767" fill="#51cacc" transform="translate(601.4920043945312 391.5257568359375)" style="animation-play-state:paused" ></circle>
<path id="path16" d="M 210.9487906078981 222.47315975011972
c 0 20.137075283952452 -4.927156718413897 5.78405353900762 -10.711210257421516 5.78405353900762
S 189.52637009305505 242.61023503407216 189.52637009305505 222.47315975011972
s 4.927156718413897 -5.78405353900762 10.711210257421516 -5.78405353900762
S 210.9487906078981 202.33608446616728 210.9487906078981 222.47315975011972
z" fill="none" stroke="none" style="animation-play-state:paused" ></path>


<circle cx="0" cy="0" r="5.544866641524265" fill="#de9dd6" transform="translate(205.79763793945312 213.52928161621094)" style="animation-play-state:paused" ></circle>
<path id="path17" d="M 1397.2794679088638 304.0966633669248
c 0 34.67842487576913 -8.485146512156275 9.960824166444326 -18.445970678600602 9.960824166444326
S 1360.3875265516626 338.7750882426939 1360.3875265516626 304.0966633669248
s 8.485146512156275 -9.960824166444326 18.445970678600602 -9.960824166444326
S 1397.2794679088638 269.4182384911557 1397.2794679088638 304.0966633669248
z" fill="none" stroke="none" style="animation-play-state:paused" ></path>


<circle cx="0" cy="0" r="5.163889882769841" fill="#ff708e" transform="translate(1360.7244873046875 294.2337951660156)" style="animation-play-state:paused" ></circle>
<path id="path18" d="M 1399.1166117630178 119.77207781982668
c 0 24.791658410809813 -6.066044079240698 7.121008266934734 -13.187052346175431 7.121008266934734
S 1372.7425070706668 144.5637362306365 1372.7425070706668 119.77207781982668
s 6.066044079240698 -7.121008266934734 13.187052346175431 -7.121008266934734
S 1399.1166117630178 94.98041940901686 1399.1166117630178 119.77207781982668
z" fill="none" stroke="none" style="animation-play-state:paused" ></path>


<circle cx="0" cy="0" r="5.63797962982157" fill="#e0ff77" transform="translate(1372.9034423828125 125.74983215332031)" style="animation-play-state:paused" ></circle>
<path id="path19" d="M 1241.7695932465647 405.85405673492517
c 0 35.883049250194176 -8.779895029302828 10.30683329526854 -19.086728324571368 10.30683329526854
S 1203.596136597422 441.73710598511934 1203.596136597422 405.85405673492517
s 8.779895029302828 -10.30683329526854 19.086728324571368 -10.30683329526854
S 1241.7695932465647 369.971007484731 1241.7695932465647 405.85405673492517
z" fill="none" stroke="none" style="animation-play-state:paused" ></path>


<circle cx="0" cy="0" r="5.944314617906665" fill="#51cacc" transform="translate(1224.8909912109375 395.1790466308594)" style="animation-play-state:paused" ></circle>
<path id="path20" d="M 913.2882023618852 318.34548878303843
c 0 28.41420439618702 -6.952411713960653 8.161526794649463 -15.113938508610117 8.161526794649463
S 883.060325344665 346.75969317922545 883.060325344665 318.34548878303843
s 6.952411713960653 -8.161526794649463 15.113938508610117 -8.161526794649463
S 913.2882023618852 289.9312843868514 913.2882023618852 318.34548878303843
z" fill="none" stroke="none" style="animation-play-state:paused" ></path>


<circle cx="0" cy="0" r="7.6036219970237005" fill="#51cacc" transform="translate(912.9219970703125 327.360107421875)" style="animation-play-state:paused" ></circle>
<path id="path21" d="M 816.0425497733195 166.88137268914872
c 0 23.708303797430464 -5.800967950435113 6.809831941815133 -12.610799892250245 6.809831941815133
S 790.8209499888189 190.58967648657918 790.8209499888189 166.88137268914872
s 5.800967950435113 -6.809831941815133 12.610799892250245 -6.809831941815133
S 816.0425497733195 143.17306889171826 816.0425497733195 166.88137268914872
z" fill="none" stroke="none" style="animation-play-state:paused" ></path>


<circle cx="0" cy="0" r="5.250047375330726" fill="#e0ff77" transform="translate(791.378662109375 157.56903076171875)" style="animation-play-state:paused" ></circle>
<path id="path22" d="M 590.4369168693042 427.02887290476133
c 0 24.06347026665634 -5.887870384394636 6.911847842550225 -12.799718226944861 6.911847842550225
S 564.8374804154146 451.09234317141767 564.8374804154146 427.02887290476133
s 5.887870384394636 -6.911847842550225 12.799718226944861 -6.911847842550225
S 590.4369168693042 402.965402638105 590.4369168693042 427.02887290476133
z" fill="none" stroke="none" style="animation-play-state:paused" ></path>


<circle cx="0" cy="0" r="7.149332973537557" fill="#51cacc" transform="translate(565.506103515625 417.0655212402344)" style="animation-play-state:paused" ></circle>
<path id="path23" d="M 67.15575846364722 543.7144971754622
c 0 28.109673771666543 -6.877898901577983 8.074055232287199 -14.951954133865183 8.074055232287199
S 37.25185019591686 571.8241709471287 37.25185019591686 543.7144971754622
s 6.877898901577983 -8.074055232287199 14.951954133865183 -8.074055232287199
S 67.15575846364722 515.6048234037956 67.15575846364722 543.7144971754622
z" fill="none" stroke="none" style="animation-play-state:paused" ></path>


<circle cx="0" cy="0" r="4.2443925297862615" fill="#ff708e" transform="translate(37.80158233642578 533.3379516601562)" style="animation-play-state:paused" ></circle>
<path id="path24" d="M 213.0270531741991 24.540843219344346
c 0 20.968007814176786 -5.130469997085809 6.022725648752907 -11.153195645838716 6.022725648752907
S 190.72066188252168 45.50885103352113 190.72066188252168 24.540843219344346
s 5.130469997085809 -6.022725648752907 11.153195645838716 -6.022725648752907
S 213.0270531741991 3.5728354051675595 213.0270531741991 24.540843219344346
z" fill="none" stroke="none" style="animation-play-state:paused" ></path>


<circle cx="0" cy="0" r="7.037686050904223" fill="#51cacc" transform="translate(190.7264862060547 23.37888526916504)" style="animation-play-state:paused" ></circle>
<path id="path25" d="M 1306.9152602526412 597.7433411144992
c 0 24.754000144545188 -6.056829822601482 7.110191530880001 -13.167021353481482 7.110191530880001
S 1280.5812175456783 622.4973412590444 1280.5812175456783 597.7433411144992
s 6.056829822601482 -7.110191530880001 13.167021353481482 -7.110191530880001
S 1306.9152602526412 572.989340969954 1306.9152602526412 597.7433411144992
z" fill="none" stroke="none" style="animation-play-state:paused" ></path>


<circle cx="0" cy="0" r="4.212396655188517" fill="#9df871" transform="translate(1306.904052734375 599.4296264648438)" style="animation-play-state:paused" ></circle>
<path id="path26" d="M 952.2890464225679 406.86087905657746
c 0 35.45108014460411 -8.674200460913772 10.18275706281182 -18.856957523725594 10.18275706281182
S 914.5751313751168 442.3119592011816 914.5751313751168 406.86087905657746
s 8.674200460913772 -10.18275706281182 18.856957523725594 -10.18275706281182
S 952.2890464225679 371.4097989119733 952.2890464225679 406.86087905657746
z" fill="none" stroke="none" style="animation-play-state:paused" ></path>


<circle cx="0" cy="0" r="5.555485947844022" fill="#e0ff77" transform="translate(952.1968383789062 401.1246032714844)" style="animation-play-state:paused" ></circle>
<path id="path27" d="M 993.4074015961155 410.6966636871421
c 0 35.660579921948994 -8.7254610447322 10.242932530772583 -18.968393575504784 10.242932530772583
S 955.4706144451059 446.35724360909114 955.4706144451059 410.6966636871421
s 8.7254610447322 -10.242932530772583 18.968393575504784 -10.242932530772583
S 993.4074015961155 375.0360837651931 993.4074015961155 410.6966636871421
z" fill="none" stroke="none" style="animation-play-state:paused" ></path>


<circle cx="0" cy="0" r="6.907049277905151" fill="#ff708e" transform="translate(989.7131958007812 391.6896667480469)" style="animation-play-state:paused" ></circle>
<path id="path28" d="M 1140.0319645034635 663.7576834530267
c 0 32.77626149943976 -8.019723558373558 9.414458090264612 -17.43418164863817 9.414458090264612
S 1105.1636012061874 696.5339449524665 1105.1636012061874 663.7576834530267
s 8.019723558373558 -9.414458090264612 17.43418164863817 -9.414458090264612
S 1140.0319645034635 630.981421953587 1140.0319645034635 663.7576834530267
z" fill="none" stroke="none" style="animation-play-state:paused" ></path>


<circle cx="0" cy="0" r="6.92710622094748" fill="#de9dd6" transform="translate(1117.503173828125 652.4103393554688)" style="animation-play-state:paused" ></circle>
<path id="path29" d="M 711.4640736664298 647.8542355596052
c 0 20.34752171577085 -4.978648930454569 5.844500918359713 -10.823149848814282 5.844500918359713
S 689.8177739688012 668.201757275376 689.8177739688012 647.8542355596052
s 4.978648930454569 -5.844500918359713 10.823149848814282 -5.844500918359713
S 711.4640736664298 627.5067138438343 711.4640736664298 647.8542355596052
z" fill="none" stroke="none" style="animation-play-state:paused" ></path>


<circle cx="0" cy="0" r="4.865304027074166" fill="#e0ff77" transform="translate(698.7305297851562 641.540283203125)" style="animation-play-state:paused" ></circle>
<path id="path30" d="M 632.9673879138409 153.730127166664
c 0 20.077839444021624 -4.912662842686141 5.7670389892402545 -10.679701831926396 5.7670389892402545
S 611.607984249988 173.80796661068564 611.607984249988 153.730127166664
s 4.912662842686141 -5.7670389892402545 10.679701831926396 -5.7670389892402545
S 632.9673879138409 133.65228772264237 632.9673879138409 153.730127166664
z" fill="none" stroke="none" style="animation-play-state:paused" ></path>


<circle cx="0" cy="0" r="4.8061164277092905" fill="#ff708e" transform="translate(628.1249389648438 144.55929565429688)" style="animation-play-state:paused" ></circle>
<path id="path31" d="M 685.6516332560763 468.6746057586385
c 0 21.894021424331328 -5.357047795315111 6.288708281456871 -11.645756076771983 6.288708281456871
S 662.3601211025324 490.56862718296986 662.3601211025324 468.6746057586385
s 5.357047795315111 -6.288708281456871 11.645756076771983 -6.288708281456871
S 685.6516332560763 446.78058433430715 685.6516332560763 468.6746057586385
z" fill="none" stroke="none" style="animation-play-state:paused" ></path>


<circle cx="0" cy="0" r="5.045294133227434" fill="#9df871" transform="translate(678.9125366210938 477.4181213378906)" style="animation-play-state:paused" ></circle>
<path id="path32" d="M 1009.3862794454074 674.008076425008
c 0 33.22145341721871 -8.12865349570245 9.542332364520268 -17.670985860222718 9.542332364520268
S 974.044307724962 707.2295298422267 974.044307724962 674.008076425008
s 8.12865349570245 -9.542332364520268 17.670985860222718 -9.542332364520268
S 1009.3862794454074 640.7866230077892 1009.3862794454074 674.008076425008
z" fill="none" stroke="none" style="animation-play-state:paused" ></path>


<circle cx="0" cy="0" r="7.34586174191118" fill="#e0ff77" transform="translate(1008.9705200195312 684.43505859375)" style="animation-play-state:paused" ></circle>
<path id="path33" d="M 424.8780979770038 343.42388206910175
c 0 19.277101369388582 -4.7167375691057165 5.537039755037147 -10.253777324142863 5.537039755037147
S 404.3705433287181 362.7009834384903 404.3705433287181 343.42388206910175
s 4.7167375691057165 -5.537039755037147 10.253777324142863 -5.537039755037147
S 424.8780979770038 324.1467806997132 424.8780979770038 343.42388206910175
z" fill="none" stroke="none" style="animation-play-state:paused" ></path>


<circle cx="0" cy="0" r="5.289390604321623" fill="#e0ff77" transform="translate(408.1316833496094 333.89569091796875)" style="animation-play-state:paused" ></circle>
<path id="path34" d="M 1410.1777773966655 224.8882052999308
c 0 35.247151242978866 -8.624302963707594 10.124181740004568 -18.748484703712162 10.124181740004568
S 1372.6808079892412 260.1353565429097 1372.6808079892412 224.8882052999308
s 8.624302963707594 -10.124181740004568 18.748484703712162 -10.124181740004568
S 1410.1777773966655 189.64105405695193 1410.1777773966655 224.8882052999308
z" fill="none" stroke="none" style="animation-play-state:paused" ></path>


<circle cx="0" cy="0" r="7.916758306652205" fill="#51cacc" transform="translate(1396.3494873046875 236.72105407714844)" style="animation-play-state:paused" ></circle>
<path id="path35" d="M 845.5392671564798 697.0819788961577
c 0 31.39970076077522 -7.6829055052960635 9.019062984477989 -16.701968489774053 9.019062984477989
S 812.1353301769318 728.4816796569329 812.1353301769318 697.0819788961577
s 7.6829055052960635 -9.019062984477989 16.701968489774053 -9.019062984477989
S 845.5392671564798 665.6822781353825 845.5392671564798 697.0819788961577
z" fill="none" stroke="none" style="animation-play-state:paused" ></path>


<circle cx="0" cy="0" r="4.406056788610029" fill="#de9dd6" transform="translate(835.693115234375 684.6939697265625)" style="animation-play-state:paused" ></circle>
<path id="path36" d="M 199.71263198138857 157.98598806010745
c 0 28.380243243812707 -6.944102070294598 8.151771995563225 -15.09587406585782 8.151771995563225
S 169.5208838496729 186.36623130392016 169.5208838496729 157.98598806010745
s 6.944102070294598 -8.151771995563225 15.09587406585782 -8.151771995563225
S 199.71263198138857 129.60574481629473 199.71263198138857 157.98598806010745
z" fill="none" stroke="none" style="animation-play-state:paused" ></path>


<circle cx="0" cy="0" r="6.440239885663545" fill="#ff708e" transform="translate(169.52735900878906 156.5530242919922)" style="animation-play-state:paused" ></circle>
<path id="path37" d="M 1424.6369425149492 201.34486059371258
c 0 34.46088154332835 -8.431917824431403 9.898338315636865 -18.33025614006827 9.898338315636865
S 1387.9764302348126 235.80574213704094 1387.9764302348126 201.34486059371258
s 8.431917824431403 -9.898338315636865 18.33025614006827 -9.898338315636865
S 1424.6369425149492 166.88397905038423 1424.6369425149492 201.34486059371258
z" fill="none" stroke="none" style="animation-play-state:paused" ></path>


<circle cx="0" cy="0" r="4.744251881684224" fill="#51cacc" transform="translate(1388.2255859375 192.6510009765625)" style="animation-play-state:paused" ></circle>
<path id="path38" d="M 170.43148948372104 534.251713308076
c 0 22.321373052372078 -5.461612555367635 6.411458217170703 -11.87307077253834 6.411458217170703
S 146.68534793864436 556.5730863604481 146.68534793864436 534.251713308076
s 5.461612555367635 -6.411458217170703 11.87307077253834 -6.411458217170703
S 170.43148948372104 511.9303402557039 170.43148948372104 534.251713308076
z" fill="none" stroke="none" style="animation-play-state:paused" ></path>


<circle cx="0" cy="0" r="4.863962613285235" fill="#de9dd6" transform="translate(154.36305236816406 542.5116577148438)" style="animation-play-state:paused" ></circle>
<path id="path39" d="M 1006.1062255679074 665.16874546842
c 0 33.32609241983708 -8.154256655917582 9.572388248251077 -17.72664490416866 9.572388248251077
S 970.65293575957 698.494837888257 970.65293575957 665.16874546842
s 8.154256655917582 -9.572388248251077 17.72664490416866 -9.572388248251077
S 1006.1062255679074 631.8426530485829 1006.1062255679074 665.16874546842
z" fill="none" stroke="none" style="animation-play-state:paused" ></path>


<circle cx="0" cy="0" r="5.286032548657833" fill="#e0ff77" transform="translate(991.6900024414062 675.5968017578125)" style="animation-play-state:paused" ></circle>
<path id="path40" d="M 732.1711798114696 687.9163135652349
c 0 19.591297382490374 -4.793615316992326 5.62728754603447 -10.420902863026795 5.62728754603447
S 711.3293740854161 707.5076109477252 711.3293740854161 687.9163135652349
s 4.793615316992326 -5.62728754603447 10.420902863026795 -5.62728754603447
S 732.1711798114696 668.3250161827445 732.1711798114696 687.9163135652349
z" fill="none" stroke="none" style="animation-play-state:paused" ></path>


<circle cx="0" cy="0" r="5.2919149062312885" fill="#de9dd6" transform="translate(716.3132934570312 696.6414184570312)" style="animation-play-state:paused" ></circle>
<path id="path41" d="M 1413.027400328171 507.42890388671447
c 0 28.6424326338697 -7.008254793393649 8.22708171398385 -15.2353365073775 8.22708171398385
S 1382.556727313416 536.0713365205842 1382.556727313416 507.42890388671447
s 7.008254793393649 -8.22708171398385 15.2353365073775 -8.22708171398385
S 1413.027400328171 478.78647125284476 1413.027400328171 507.42890388671447
z" fill="none" stroke="none" style="animation-play-state:paused" ></path>


<circle cx="0" cy="0" r="7.521542719454951" fill="#9df871" transform="translate(1392.7562255859375 517.7640991210938)" style="animation-play-state:paused" ></circle>
<path id="path42" d="M 193.01960193152797 577.853139032357
c 0 37.33172688913449 -9.134358706915883 10.722942829857779 -19.85730153677366 10.722942829857779
S 153.30499885798065 615.1848659214916 153.30499885798065 577.853139032357
s 9.134358706915883 -10.722942829857779 19.85730153677366 -10.722942829857779
S 193.01960193152797 540.5214121432225 193.01960193152797 577.853139032357
z" fill="none" stroke="none" style="animation-play-state:paused" ></path>


<circle cx="0" cy="0" r="6.133153589905877" fill="#9df871" transform="translate(153.96022033691406 591.1221313476562)" style="animation-play-state:paused" ></circle>
<path id="path43" d="M 419.0997835568965 385.4355589489967
c 0 20.360064539224037 -4.981717919171839 5.848103644245203 -10.829821563417042 5.848103644245203
S 397.4401404300624 405.7956234882207 397.4401404300624 385.4355589489967
s 4.981717919171839 -5.848103644245203 10.829821563417042 -5.848103644245203
S 419.0997835568965 365.07549440977266 419.0997835568965 385.4355589489967
z" fill="none" stroke="none" style="animation-play-state:paused" ></path>


<circle cx="0" cy="0" r="5.781283264849651" fill="#e0ff77" transform="translate(401.5263366699219 375.4584045410156)" style="animation-play-state:paused" ></circle>
<path id="path44" d="M 973.078886730096 446.6649560152733
c 0 35.32509450082678 -8.643374186372508 10.14656969704599 -18.7899438834185 10.14656969704599
S 935.498998963259 481.99005051610004 935.498998963259 446.6649560152733
s 8.643374186372508 -10.14656969704599 18.7899438834185 -10.14656969704599
S 973.078886730096 411.3398615144465 973.078886730096 446.6649560152733
z" fill="none" stroke="none" style="animation-play-state:paused" ></path>


<circle cx="0" cy="0" r="7.352506505442009" fill="#de9dd6" transform="translate(971.8301391601562 462.35687255859375)" style="animation-play-state:paused" ></circle>
<path id="path45" d="M 428.13816530524747 295.6180932050655
c 0 28.580440204302537 -6.993086432967641 8.20927537783158 -15.202361810799221 8.20927537783158
S 397.733441683649 324.19853340936805 397.733441683649 295.6180932050655
s 6.993086432967641 -8.20927537783158 15.202361810799221 -8.20927537783158
S 428.13816530524747 267.037653000763 428.13816530524747 295.6180932050655
z" fill="none" stroke="none" style="animation-play-state:paused" ></path>


<circle cx="0" cy="0" r="4.586058327211929" fill="#e0ff77" transform="translate(398.8401794433594 282.6072082519531)" style="animation-play-state:paused" ></circle>
<path id="path46" d="M 682.6277779883939 217.3968534920991
c 0 19.62953209967195 -4.8029706201324975 5.63826985841641 -10.441240478548908 5.63826985841641
S 661.745297031296 237.02638559177103 661.745297031296 217.3968534920991
s 4.8029706201324975 -5.63826985841641 10.441240478548908 -5.63826985841641
S 682.6277779883939 197.76732139242716 682.6277779883939 217.3968534920991
z" fill="none" stroke="none" style="animation-play-state:paused" ></path>


<circle cx="0" cy="0" r="6.584624942330351" fill="#ff708e" transform="translate(668.353271484375 210.02032470703125)" style="animation-play-state:paused" ></circle>
<path id="path47" d="M 973.1780845317628 157.5667602022373
c 0 33.67161632514434 -8.23879973913106 9.671634476371247 -17.91043421550231 9.671634476371247
S 937.3572161007583 191.23837652738166 937.3572161007583 157.5667602022373
s 8.23879973913106 -9.671634476371247 17.91043421550231 -9.671634476371247
S 973.1780845317628 123.89514387709296 973.1780845317628 157.5667602022373
z" fill="none" stroke="none" style="animation-play-state:paused" ></path>


<circle cx="0" cy="0" r="6.958112882445474" fill="#9df871" transform="translate(967.0076904296875 140.63421630859375)" style="animation-play-state:paused" ></circle>
<path id="path48" d="M 234.99883669547805 420.0726907555841
c 0 31.66472527500818 -7.747751928991362 9.095187047076818 -16.84293897606818 9.095187047076818
S 201.31295874334168 451.73741603059227 201.31295874334168 420.0726907555841
s 7.747751928991362 -9.095187047076818 16.84293897606818 -9.095187047076818
S 234.99883669547805 388.40796548057597 234.99883669547805 420.0726907555841
z" fill="none" stroke="none" style="animation-play-state:paused" ></path>


<circle cx="0" cy="0" r="6.015490749167357" fill="#e0ff77" transform="translate(201.35818481445312 423.9609680175781)" style="animation-play-state:paused" ></circle>
<path id="path49" d="M 358.5556589713087 220.5211765275869
c 0 24.734400556347317 -6.052034178680726 7.104561861929549 -13.156596040610275 7.104561861929549
S 332.2424668900881 245.2555770839342 332.2424668900881 220.5211765275869
s 6.052034178680726 -7.104561861929549 13.156596040610275 -7.104561861929549
S 358.5556589713087 195.7867759712396 358.5556589713087 220.5211765275869
z" fill="none" stroke="none" style="animation-play-state:paused" ></path>


<circle cx="0" cy="0" r="7.131492591029206" fill="#51cacc" transform="translate(358.409912109375 214.79495239257812)" style="animation-play-state:paused" ></circle></g></svg>